# xmcd
#
# Track frame offsets:
#	150
#	15525
#	32912
#	53370
#	73092
#	93802
#	111892
#	124610
#	140510
#	156437
#	173350
#	193877
#	209950
#	236217
#
# Disc length: 4440 seconds
#
# Revision: 1
# Processed by: cddbd v1.5.1PL2 Copyright (c) Steve Scherf et al.
# Submitted via: audiograbber 1.83.01
#
DISCID=c511560e
DTITLE=Paul Midón - State of mind
DYEAR=2006
DGENRE=
TTITLE0=State of mind
TTITLE1=If you're gonna leave
TTITLE2=Keep on hoping (with Jason Mraz)
TTITLE3=Mystery Girl
TTITLE4=Waited all my life
TTITLE5=Everybody
TTITLE6=Experssions of love (with Stevie Wonder)
TTITLE7=Sittin' in the middle (with Donny Hathaway)
TTITLE8=Suddenly
TTITLE9=Never get enough
TTITLE10=Sunshine
TTITLE11=I would do anything
TTITLE12=All in your mind
TTITLE13=Daten-CD
EXTD=
EXTT0=
EXTT1=
EXTT2=
EXTT3=
EXTT4=
EXTT5=
EXTT6=
EXTT7=
EXTT8=
EXTT9=
EXTT10=
EXTT11=
EXTT12=
EXTT13=
PLAYORDER=
